<svg version="1.1" viewBox="0.0 0.0 216.0 46.0" fill="none" stroke="none" stroke-linecap="square" stroke-miterlimit="10" xmlns:xlink="http://www.w3.org/1999/xlink" xmlns="http://www.w3.org/2000/svg"><clipPath id="p.0"><path d="m0 0l216.0 0l0 46.0l-216.0 0l0 -46.0z" clip-rule="nonzero"/></clipPath><g clip-path="url(#p.0)"><path fill="#000000" fill-opacity="0.0" d="m0 0l216.0 0l0 46.0l-216.0 0z" fill-rule="evenodd"/><path fill="#000000" fill-opacity="0.0" d="m1.2335958 -0.7401575l214.77165 0l0 53.669292l-214.77165 0z" fill-rule="evenodd"/><path fill="#31a1a8" d="m18.115446 20.90261l-1.625 5.265625l5.4375 0l-1.625 -5.265625q-0.140625 -0.3125 -0.296875 -0.453125q-0.15625 -0.140625 -0.359375 -0.140625l-0.875 0q-0.203125 0 -0.359375 0.140625q-0.15625 0.140625 -0.296875 0.453125zm-1.96875 16.421875q0 0.65625 -0.29687405 0.953125q-0.296875 0.296875 -0.953125 0.296875l-5.09375 0q-0.671875 0 -0.96875 -0.296875q-0.28125 -0.296875 -0.28125 -0.953125l0 -9.140625q0 -1.046875 0.328125 -2.390625q0.328125 -1.359375 1.015625 -3.15625l3.015625 -7.874999q0.21875 -0.578125 0.640625 -0.859375q0.4375 -0.28125 1.125 -0.28125l9.328124 0q0.65625 0 1.09375 0.28125q0.4375 0.28125 0.640625 0.859375l3.015625 7.874999q0.6875 1.796875 1.015625 3.15625q0.328125 1.34375 0.328125 2.390625l0 9.140625q0 0.65625 -0.296875 0.953125q-0.28125 0.296875 -0.9375 0.296875l-5.234375 0q-0.703125 0 -1.03125 -0.296875q-0.328125 -0.296875 -0.328125 -0.953125l0 -4.84375l-6.125 0l0 4.84375zm35.861588 1.25l-17.1875 0q-0.65625 0 -0.953125 -0.296875q-0.296875 -0.296875 -0.296875 -0.953125l0 -4.640625q0 -0.65625 0.203125 -1.15625q0.21875 -0.515625 0.65625 -1.0l8.421875 -10.21875l-7.40625 0q-0.65625 0 -0.953125 -0.296875q-0.296875 -0.296875 -0.296875 -0.953125l0 -4.187499q0 -0.65625 0.296875 -0.953125q0.296875 -0.296875 0.953125 -0.296875l15.9375 0q0.65625 0 0.953125 0.296875q0.296875 0.296875 0.296875 0.953125l0 5.156249q0 0.703125 -0.21875 1.203125q-0.203125 0.5 -0.65625 0.984375l-8.03125 9.734375l8.28125 0q0.65625 0 0.953125 0.296875q0.296875 0.296875 0.296875 0.953125l0 4.125q0 0.65625 -0.296875 0.953125q-0.296875 0.296875 -0.953125 0.296875zm5.9200287 0q-0.65625 0 -0.953125 -0.296875q-0.28125 -0.296875 -0.28125 -0.953125l0 -4.125q0 -0.65625 0.28125 -0.953125q0.296875 -0.296875 0.953125 -0.296875l3.4375 0l0 -11.640625l-3.4375 0q-0.65625 0 -0.953125 -0.296875q-0.28125 -0.296875 -0.28125 -0.953125l0 -4.187499q0 -0.65625 0.28125 -0.953125q0.296875 -0.296875 0.953125 -0.296875l14.765625 0q0.65625 0 0.953125 0.296875q0.296875 0.296875 0.296875 0.953125l0 4.187499q0 0.65625 -0.296875 0.953125q-0.296875 0.296875 -0.953125 0.296875l-3.359375 0l0 11.640625l3.359375 0q0.65625 0 0.953125 0.296875q0.296875 0.296875 0.296875 0.953125l0 4.125q0 0.65625 -0.296875 0.953125q-0.296875 0.296875 -0.953125 0.296875l-14.765625 0zm37.92018 0l-17.1875 0q-0.65625 0 -0.953125 -0.296875q-0.296875 -0.296875 -0.296875 -0.953125l0 -4.640625q0 -0.65625 0.203125 -1.15625q0.21875 -0.515625 0.65625 -1.0l8.421875 -10.21875l-7.40625 0q-0.65625 0 -0.953125 -0.296875q-0.296875 -0.296875 -0.296875 -0.953125l0 -4.187499q0 -0.65625 0.296875 -0.953125q0.296875 -0.296875 0.953125 -0.296875l15.9375 0q0.65625 0 0.953125 0.296875q0.296875 0.296875 0.296875 0.953125l0 5.156249q0 0.703125 -0.21875 1.203125q-0.203125 0.5 -0.65625 0.984375l-8.03125 9.734375l8.28125 0q0.65625 0 0.953125 0.296875q0.296875 0.296875 0.296875 0.953125l0 4.125q0 0.65625 -0.296875 0.953125q-0.296875 0.296875 -0.953125 0.296875z" fill-rule="nonzero"/><path fill="#999999" d="m101.768524 38.574486q-0.65625 0 -0.953125 -0.296875q-0.28125 -0.296875 -0.28125 -0.953125l0 -4.125q0 -0.65625 0.28125 -0.953125q0.296875 -0.296875 0.953125 -0.296875l3.4375 0l0 -11.640625l-3.4375 0q-0.65625 0 -0.953125 -0.296875q-0.28125 -0.296875 -0.28125 -0.953125l0 -4.187499q0 -0.65625 0.28125 -0.953125q0.296875 -0.296875 0.953125 -0.296875l14.765625 0q0.65625 0 0.953125 0.296875q0.296875 0.296875 0.296875 0.953125l0 4.187499q0 0.65625 -0.296875 0.953125q-0.296875 0.296875 -0.953125 0.296875l-3.359375 0l0 11.640625l3.359375 0q0.65625 0 0.953125 0.296875q0.296875 0.296875 0.296875 0.953125l0 4.125q0 0.65625 -0.296875 0.953125q-0.296875 0.296875 -0.953125 0.296875l-14.765625 0zm26.904556 0l-5.375 0q-0.65625 0 -0.953125 -0.296875q-0.296875 -0.296875 -0.296875 -0.953125l0 -22.453125q0 -0.65625 0.296875 -0.953125q0.296875 -0.296875 0.953125 -0.296875l15.453125 0q0.65625 0 0.953125 0.296875q0.296875 0.296875 0.296875 0.953125l0 4.124999q0 0.65625 -0.296875 0.953125q-0.296875 0.296875 -0.953125 0.296875l-8.828125 0l0 3.59375l6.015625 0q0.671875 0 0.953125 0.296875q0.296875 0.296875 0.296875 0.953125l0 4.15625q0 0.65625 -0.296875 0.953125q-0.28125 0.296875 -0.953125 0.296875l-6.015625 0l0 6.828125q0 0.65625 -0.296875 0.953125q-0.296875 0.296875 -0.953125 0.296875zm15.480087 0q-0.65625 0 -0.953125 -0.296875q-0.28125 -0.296875 -0.28125 -0.953125l0 -4.125q0 -0.65625 0.28125 -0.953125q0.296875 -0.296875 0.953125 -0.296875l3.4375 0l0 -11.640625l-3.4375 0q-0.65625 0 -0.953125 -0.296875q-0.28125 -0.296875 -0.28125 -0.953125l0 -4.187499q0 -0.65625 0.28125 -0.953125q0.296875 -0.296875 0.953125 -0.296875l14.765625 0q0.65625 0 0.953125 0.296875q0.296875 0.296875 0.296875 0.953125l0 4.187499q0 0.65625 -0.296875 0.953125q-0.296875 0.296875 -0.953125 0.296875l-3.359375 0l0 11.640625l3.359375 0q0.65625 0 0.953125 0.296875q0.296875 0.296875 0.296875 0.953125l0 4.125q0 0.65625 -0.296875 0.953125q-0.296875 0.296875 -0.953125 0.296875l-14.765625 0zm37.60768 0l-16.078125 0q-0.65625 0 -0.953125 -0.296875q-0.296875 -0.296875 -0.296875 -0.953125l0 -22.453125q0 -0.65625 0.296875 -0.953125q0.296875 -0.296875 0.953125 -0.296875l16.078125 0q0.65625 0 0.953125 0.296875q0.296875 0.296875 0.296875 0.953125l0 4.046874q0 0.671875 -0.296875 0.96875q-0.296875 0.28125 -0.953125 0.28125l-9.5625 0l0 2.671875l6.75 0q0.671875 0 0.953125 0.296875q0.296875 0.296875 0.296875 0.953125l0 3.703125q0 0.65625 -0.296875 0.953125q-0.28125 0.296875 -0.953125 0.296875l-6.75 0l0 2.984375l9.5625 0q0.65625 0 0.953125 0.296875q0.296875 0.296875 0.296875 0.953125l0 4.046875q0 0.65625 -0.296875 0.953125q-0.296875 0.296875 -0.953125 0.296875zm18.258957 0l-11.671875 0q-0.65625 0 -0.953125 -0.296875q-0.296875 -0.296875 -0.296875 -0.953125l0 -22.453125q0 -0.65625 0.296875 -0.953125q0.296875 -0.296875 0.953125 -0.296875l11.671875 0q4.34375 0 6.4375 1.734375q2.09375 1.734374 2.09375 5.343749l0 10.8125q0 3.59375 -2.09375 5.328125q-2.09375 1.734375 -6.4375 1.734375zm-5.046875 -18.328125l0 11.78125l4.109375 0q0.84375 0 1.234375 -0.40625q0.40625 -0.421875 0.40625 -1.296875l0 -8.421875q0 -0.859375 -0.40625 -1.25q-0.390625 -0.40625 -1.234375 -0.40625l-4.109375 0z" fill-rule="nonzero"/></g></svg>